<svg width="175" height="180" viewBox="0 0 175 180" fill="none" xmlns="http://www.w3.org/2000/svg">
<path fill-rule="evenodd" clip-rule="evenodd" d="M85.2873 123.723C73.7834 123.723 64.4577 133.049 64.4577 144.553C64.4577 156.056 73.7834 165.382 85.2873 165.382C96.7911 165.382 106.117 156.056 106.117 144.553C106.117 133.049 96.7911 123.723 85.2873 123.723ZM85.2873 114.675C68.7863 114.675 55.4095 128.052 55.4095 144.553C55.4095 161.054 68.7863 174.43 85.2873 174.43C101.788 174.43 115.165 161.054 115.165 144.553C115.165 128.052 101.788 114.675 85.2873 114.675Z" fill="white"/>
<path fill-rule="evenodd" clip-rule="evenodd" d="M85.2884 68.5698C57.2836 68.5698 34.5811 90.3263 34.5811 117.164C34.5811 144.002 57.2836 165.759 85.2884 165.759C113.293 165.759 135.996 144.002 135.996 117.164C135.996 90.3263 113.293 68.5698 85.2884 68.5698ZM85.2884 59.8987C52.2864 59.8987 25.533 85.5374 25.533 117.164C25.533 148.791 52.2864 174.43 85.2884 174.43C118.29 174.43 145.044 148.791 145.044 117.164C145.044 85.5374 118.29 59.8987 85.2884 59.8987Z" fill="white"/>
<path fill-rule="evenodd" clip-rule="evenodd" d="M87.7765 9.1916C44.5069 9.1916 9.4299 45.2708 9.4299 89.7767C9.4299 134.283 44.5069 170.362 87.7765 170.362C131.046 170.362 166.123 134.283 166.123 89.7767C166.123 45.2708 131.046 9.1916 87.7765 9.1916ZM87.7765 0.143428C39.6485 0.143428 0.633052 40.2736 0.633052 89.7767C0.633052 139.28 39.6485 179.41 87.7765 179.41C135.904 179.41 174.92 139.28 174.92 89.7767C174.92 40.2736 135.904 0.143428 87.7765 0.143428Z" fill="white"/>
</svg>
