<svg width="175" height="175" viewBox="0 0 175 175" fill="none" xmlns="http://www.w3.org/2000/svg">
<path fill-rule="evenodd" clip-rule="evenodd" d="M86.8333 125.499C75.6033 125.499 66.4995 134.603 66.4995 145.833C66.4995 157.063 75.6033 166.167 86.8333 166.167C98.0634 166.167 107.167 157.063 107.167 145.833C107.167 134.603 98.0634 125.499 86.8333 125.499ZM86.8333 116.667C70.725 116.667 57.6667 129.725 57.6667 145.833C57.6667 161.942 70.725 175 86.8333 175C102.942 175 116 161.942 116 145.833C116 129.725 102.942 116.667 86.8333 116.667Z" fill="white"/>
<path fill-rule="evenodd" clip-rule="evenodd" d="M87.6667 67.1662C60.3283 67.1662 38.1662 89.3283 38.1662 116.667C38.1662 144.005 60.3283 166.167 87.6667 166.167C115.005 166.167 137.167 144.005 137.167 116.667C137.167 89.3283 115.005 67.1662 87.6667 67.1662ZM87.6667 58.3333C55.4501 58.3333 29.3333 84.4501 29.3333 116.667C29.3333 148.883 55.4501 175 87.6667 175C119.883 175 146 148.883 146 116.667C146 84.4501 119.883 58.3333 87.6667 58.3333Z" fill="white"/>
<path fill-rule="evenodd" clip-rule="evenodd" d="M87.5 8.83283C44.0533 8.83283 8.83282 44.0533 8.83282 87.5C8.83282 130.947 44.0533 166.167 87.5 166.167C130.947 166.167 166.167 130.947 166.167 87.5C166.167 44.0533 130.947 8.83283 87.5 8.83283ZM87.5 -8.99731e-06C39.1751 -8.99731e-06 -5.34469e-06 39.1751 -5.34469e-06 87.5C-5.34469e-06 135.825 39.1751 175 87.5 175C135.825 175 175 135.825 175 87.5C175 39.1751 135.825 -8.99731e-06 87.5 -8.99731e-06Z" fill="white"/>
</svg>
