<svg width="251" height="258" viewBox="0 0 251 258" fill="none" xmlns="http://www.w3.org/2000/svg">
<path fill-rule="evenodd" clip-rule="evenodd" d="M122.062 177.408C105.56 177.408 92.1835 190.785 92.1835 207.286C92.1835 223.788 105.56 237.165 122.062 237.165C138.563 237.165 151.94 223.788 151.94 207.286C151.94 190.785 138.563 177.408 122.062 177.408ZM122.062 164.429C98.3925 164.429 79.2047 183.617 79.2047 207.286C79.2047 230.956 98.3925 250.143 122.062 250.143C145.731 250.143 164.919 230.956 164.919 207.286C164.919 183.617 145.731 164.429 122.062 164.429Z" fill="white"/>
<path fill-rule="evenodd" clip-rule="evenodd" d="M122.064 98.2954C81.8934 98.2954 49.3286 129.503 49.3286 168C49.3286 206.497 81.8934 237.705 122.064 237.705C162.235 237.705 194.799 206.497 194.799 168C194.799 129.503 162.235 98.2954 122.064 98.2954ZM122.064 85.8574C74.7253 85.8574 36.3497 122.634 36.3497 168C36.3497 213.366 74.7253 250.143 122.064 250.143C169.403 250.143 207.778 213.366 207.778 168C207.778 122.634 169.403 85.8574 122.064 85.8574Z" fill="white"/>
<path fill-rule="evenodd" clip-rule="evenodd" d="M125.633 13.1223C63.5661 13.1223 13.2511 64.8748 13.2511 128.715C13.2511 192.555 63.5661 244.307 125.633 244.307C187.699 244.307 238.014 192.555 238.014 128.715C238.014 64.8748 187.699 13.1223 125.633 13.1223ZM125.633 0.143412C56.5972 0.143412 0.632803 57.7068 0.632803 128.715C0.632803 199.723 56.5972 257.286 125.633 257.286C194.668 257.286 250.633 199.723 250.633 128.715C250.633 57.7068 194.668 0.143412 125.633 0.143412Z" fill="white"/>
</svg>
