<svg width="50" height="50" viewBox="0 0 50 50" fill="none" xmlns="http://www.w3.org/2000/svg">
<path fill-rule="evenodd" clip-rule="evenodd" d="M25.0002 35.857C21.7916 35.857 19.1905 38.4581 19.1905 41.6667C19.1905 44.8753 21.7916 47.4763 25.0002 47.4763C28.2088 47.4763 30.8098 44.8753 30.8098 41.6667C30.8098 38.4581 28.2088 35.857 25.0002 35.857ZM25.0002 33.3333C20.3978 33.3333 16.6668 37.0643 16.6668 41.6667C16.6668 46.269 20.3978 50 25.0002 50C29.6025 50 33.3335 46.269 33.3335 41.6667C33.3335 37.0643 29.6025 33.3333 25.0002 33.3333Z" fill="white"/>
<path fill-rule="evenodd" clip-rule="evenodd" d="M24.4447 19.1903C16.6337 19.1903 10.3017 25.5224 10.3017 33.3333C10.3017 41.1443 16.6337 47.4763 24.4447 47.4763C32.2556 47.4763 38.5877 41.1443 38.5877 33.3333C38.5877 25.5224 32.2556 19.1903 24.4447 19.1903ZM24.4447 16.6667C15.2399 16.6667 7.77799 24.1286 7.77799 33.3333C7.77799 42.5381 15.2399 50 24.4447 50C33.6494 50 41.1113 42.5381 41.1113 33.3333C41.1113 24.1286 33.6494 16.6667 24.4447 16.6667Z" fill="white"/>
<path fill-rule="evenodd" clip-rule="evenodd" d="M25 2.52367C12.5867 2.52367 2.52367 12.5867 2.52367 25C2.52367 37.4133 12.5867 47.4763 25 47.4763C37.4133 47.4763 47.4763 37.4133 47.4763 25C47.4763 12.5867 37.4133 2.52367 25 2.52367ZM25 4.86067e-07C11.1929 4.86067e-07 7.01809e-07 11.1929 7.01809e-07 25C7.01809e-07 38.8071 11.1929 50 25 50C38.8071 50 50 38.8071 50 25C50 11.1929 38.8071 4.86067e-07 25 4.86067e-07Z" fill="white"/>
</svg>
